<?xml version="1.0" encoding="utf-8"?>
<!-- Generator: Adobe Illustrator 16.0.0, SVG Export Plug-In . SVG Version: 6.00 Build 0)  -->
<!DOCTYPE svg PUBLIC "-//W3C//DTD SVG 1.1//EN" "http://www.w3.org/Graphics/SVG/1.1/DTD/svg11.dtd">
<svg version="1.1" id="Calque_1" xmlns="http://www.w3.org/2000/svg" xmlns:xlink="http://www.w3.org/1999/xlink" x="0px" y="0px"
	 width="19.002px" height="19px" viewBox="0 0 19.002 19" enable-background="new 0 0 19.002 19" xml:space="preserve">
<path fill="#005497" d="M18.475,14.377c-0.825-0.824-1.681-1.681-2.505-2.505c-0.674-0.673-1.559-0.673-2.231,0
	c-0.519,0.519-1.04,1.037-1.559,1.558c-0.152,0.153-0.244,0.183-0.428,0.091c-0.336-0.183-0.703-0.336-1.009-0.55
	c-1.528-0.946-2.781-2.168-3.912-3.544c-0.549-0.672-1.069-1.406-1.405-2.23C5.366,7.044,5.366,6.921,5.518,6.799
	c0.52-0.519,1.04-1.008,1.559-1.528c0.703-0.732,0.703-1.558,0-2.292C6.679,2.582,6.251,2.154,5.855,1.757
	C5.427,1.329,5.029,0.902,4.602,0.504c-0.703-0.672-1.558-0.672-2.231,0c-0.52,0.519-1.039,1.039-1.559,1.558
	c-0.489,0.459-0.763,1.04-0.794,1.711c-0.091,1.1,0.184,2.108,0.55,3.117c0.733,2.017,1.925,3.88,3.331,5.561
	c1.925,2.292,4.217,4.096,6.907,5.409c1.222,0.581,2.475,1.039,3.819,1.13c0.946,0.062,1.772-0.183,2.414-0.916
	c0.458-0.488,0.946-0.947,1.436-1.436C19.178,15.935,19.178,15.081,18.475,14.377z"/>
</svg>
