<?xml version="1.0" encoding="utf-8"?>
<!-- Generator: Adobe Illustrator 16.0.0, SVG Export Plug-In . SVG Version: 6.00 Build 0)  -->
<!DOCTYPE svg PUBLIC "-//W3C//DTD SVG 1.1//EN" "http://www.w3.org/Graphics/SVG/1.1/DTD/svg11.dtd">
<svg version="1.1" id="Calque_1" xmlns="http://www.w3.org/2000/svg" xmlns:xlink="http://www.w3.org/1999/xlink" x="0px" y="0px"
	 width="25px" height="25px" viewBox="0 0 25 25" enable-background="new 0 0 25 25" xml:space="preserve">
<g>
	<defs>
		<rect id="SVGID_1_" x="0.5" y="0.5" width="24" height="24"/>
	</defs>
	<clipPath id="SVGID_2_">
		<use xlink:href="#SVGID_1_"  overflow="visible"/>
	</clipPath>
	<path clip-path="url(#SVGID_2_)" fill="#FFFFFF" d="M12.5,2.1c5.734,0,10.4,4.667,10.4,10.4c0,5.734-4.666,10.4-10.4,10.4
		c-5.734,0-10.4-4.666-10.4-10.4C2.1,6.767,6.766,2.1,12.5,2.1 M12.5,0.5c-6.64,0-12,5.36-12,12s5.36,12,12,12
		c6.641,0,12-5.36,12-12C24.5,5.86,19.141,0.5,12.5,0.5 M13.3,17.887v-6.613c0-0.454-0.347-0.8-0.8-0.8s-0.8,0.347-0.8,0.8v6.613
		c0,0.453,0.347,0.8,0.8,0.8S13.3,18.313,13.3,17.887 M12.5,6.42c-0.587,0-1.067,0.48-1.067,1.067c0,0.586,0.48,1.067,1.067,1.067
		s1.066-0.48,1.066-1.067C13.566,6.9,13.087,6.42,12.5,6.42"/>
</g>
</svg>
